<?xml version="1.0" standalone="no"?>
<!DOCTYPE svg PUBLIC "-//W3C//DTD SVG 20010904//EN"
 "http://www.w3.org/TR/2001/REC-SVG-20010904/DTD/svg10.dtd">
<svg version="1.0" xmlns="http://www.w3.org/2000/svg"
 width="200.000000pt" height="200.000000pt" viewBox="0 0 200.000000 200.000000"
 preserveAspectRatio="xMidYMid meet">
<metadata>
Created by potrace 1.14, written by Peter Selinger 2001-2017
</metadata>
<g transform="translate(0.000000,200.000000) scale(0.100000,-0.100000)"
fill="#000000" stroke="none">
<path d="M0 1469 c0 -524 0 -531 21 -561 12 -16 23 -28 24 -26 2 2 -5 34 -16
72 -10 38 -17 71 -15 73 6 6 67 -171 69 -202 2 -27 -2 -31 -40 -43 -24 -8 -43
-18 -43 -22 0 -8 32 -1 74 16 13 5 17 4 12 -4 -4 -6 -25 -17 -46 -23 l-40 -12
0 -66 c0 -66 0 -67 28 -66 22 1 31 10 52 51 l25 49 5 -49 c4 -39 7 -46 16 -35
16 20 54 126 54 149 0 47 19 20 66 -93 l25 -59 -30 -131 c-35 -153 -51 -277
-51 -399 0 -82 1 -88 20 -88 20 0 21 4 13 63 -18 140 -3 291 47 478 l12 42 27
-49 c15 -28 34 -60 43 -73 15 -21 15 -28 -3 -89 -31 -106 -89 -339 -89 -356 0
-14 29 -16 235 -16 l236 0 -17 32 c-14 27 -54 134 -54 145 0 2 7 0 16 -5 9 -5
26 -34 39 -66 12 -31 30 -67 39 -81 l16 -25 313 0 313 0 89 51 c50 28 126 80
171 114 100 78 237 223 230 242 -3 8 -2 12 3 9 10 -6 47 47 85 122 22 43 26
64 26 137 l0 85 -27 0 c-16 0 -38 3 -51 6 -19 6 -25 0 -43 -42 -86 -204 -158
-300 -323 -429 -180 -139 -435 -265 -570 -281 l-53 -6 -174 122 c-96 68 -203
146 -238 173 -126 100 -208 224 -271 412 -34 102 -35 109 -15 101 19 -7 19 2
0 46 -15 38 -50 206 -58 280 -5 57 12 56 38 -2 10 -21 28 -48 40 -60 l23 -21
-11 40 c-9 33 -8 47 6 76 18 38 69 75 105 75 27 0 27 2 2 -51 -11 -24 -20 -58
-20 -75 0 -39 25 -112 48 -138 16 -18 16 -19 -3 -14 -11 3 -29 9 -40 13 -19 6
-19 6 -1 -9 19 -15 99 -36 141 -36 38 0 70 16 90 46 21 32 35 132 23 166 l-8
23 18 -22 c9 -12 32 -49 51 -82 19 -34 37 -61 41 -61 3 0 4 23 0 50 l-7 51 45
-43 c24 -24 65 -72 90 -108 55 -77 114 -150 122 -150 3 0 5 57 5 128 0 135 14
210 46 258 l20 29 -2 -35 c-2 -55 -1 -55 33 -9 39 55 49 36 12 -26 -25 -44
-27 -74 -1 -44 6 8 20 21 30 29 17 12 18 11 11 -14 l-6 -27 39 21 c43 22 103
42 103 34 0 -3 -10 -19 -22 -35 -30 -41 -33 -150 -4 -193 l18 -29 -48 7 -49 6
40 -17 c55 -22 267 -24 310 -3 16 8 28 18 27 23 -1 4 5 21 14 38 10 21 15 50
12 86 -3 54 -3 54 15 31 13 -15 18 -34 15 -59 -4 -45 4 -42 38 17 14 24 32 44
40 44 8 0 29 7 46 16 l30 16 -7 -74 c-9 -103 -24 -187 -41 -227 -8 -19 -13
-36 -11 -37 2 -2 29 31 60 72 31 42 57 74 57 70 0 -11 -43 -121 -52 -133 -5
-6 -5 -14 0 -17 8 -4 51 28 193 144 l37 29 -9 -38 c-5 -21 -13 -51 -19 -65
-17 -46 -11 -52 20 -18 l30 33 0 580 0 579 -1000 0 -1000 0 0 -531z m378 185
c-2 -2 -16 0 -31 4 l-27 7 28 45 27 45 3 -49 c2 -26 2 -50 0 -52z m1108 -47
c24 -33 42 -62 40 -64 -3 -3 -31 -2 -63 2 l-58 6 9 64 c6 35 14 61 19 58 5 -3
29 -32 53 -66z m-1120 12 c16 -5 22 -19 27 -56 3 -26 9 -63 13 -82 l7 -33 -43
7 c-51 9 -48 -9 4 -19 32 -6 64 -31 54 -41 -3 -3 -28 -1 -56 5 -28 6 -66 10
-84 7 l-33 -4 38 -1 c20 -1 37 -6 37 -12 0 -5 -5 -10 -10 -10 -6 0 -31 -19
-55 -41 l-45 -42 0 39 c0 70 18 151 50 228 34 82 31 80 96 55z m964 -66 c0 -7
-7 -13 -16 -13 -11 0 -14 5 -10 16 3 9 6 21 6 27 0 16 20 -14 20 -30z m-793
-68 c9 -54 9 -55 -14 -55 -25 0 -27 9 -17 73 4 20 10 37 14 37 3 0 11 -25 17
-55z m1009 -25 c6 -30 14 -81 18 -114 6 -57 6 -58 -16 -52 -13 4 -62 9 -110
13 -64 4 -88 10 -88 19 0 9 13 15 38 16 36 1 36 1 5 5 -18 2 -33 6 -33 8 0 13
31 149 36 157 3 5 36 8 72 6 l67 -3 11 -55z m-216 -25 c0 -82 -4 -86 -68 -69
-27 8 -26 21 8 98 14 33 25 46 40 46 18 0 20 -6 20 -75z m361 -77 c34 -81 44
-118 47 -176 4 -70 3 -73 -14 -64 -24 13 -70 62 -59 62 5 0 -13 16 -38 36 -46
36 -62 62 -32 50 8 -3 15 -1 15 3 0 5 -5 11 -10 13 -7 2 -6 18 4 45 8 23 18
62 21 87 4 25 11 46 15 46 4 0 27 -46 51 -102z m-1492 -49 c1 -21 -5 -42 -14
-49 -13 -11 -15 -8 -15 16 0 16 3 47 7 69 5 31 8 35 14 20 4 -11 8 -36 8 -56z
m343 51 c26 -20 47 -67 25 -53 -38 22 -67 48 -67 60 0 18 13 16 42 -7z m782
-35 c-4 -8 -10 -15 -14 -15 -4 0 -23 -3 -41 -7 l-34 -6 25 21 c30 25 72 30 64
7z m-746 -164 c2 -13 -1 -28 -6 -33 -13 -13 -36 28 -28 49 8 21 30 11 34 -16z
m941 -49 c12 -23 -1 -45 -22 -36 -21 8 -23 54 -2 54 8 0 19 -8 24 -18z m421
-604 c0 -13 -41 -80 -46 -75 -8 8 28 97 37 91 5 -3 9 -10 9 -16z"/>
<path d="M239 1063 c13 -24 99 -108 105 -102 5 4 -102 119 -110 119 -3 0 0 -8
5 -17z"/>
<path d="M1575 920 c-11 -11 -38 -28 -60 -39 -22 -11 -34 -20 -27 -21 23 0 78
30 103 56 27 29 12 33 -16 4z"/>
<path d="M744 745 l-27 -56 28 -29 c33 -34 51 -39 35 -10 -6 12 -8 45 -4 85 4
36 4 65 1 65 -3 0 -18 -25 -33 -55z"/>
<path d="M1978 457 c-50 -104 -216 -267 -396 -388 l-103 -69 260 0 261 0 0
245 c0 135 -1 245 -3 245 -2 0 -10 -15 -19 -33z"/>
<path d="M816 357 c-33 -24 -13 -44 51 -50 32 -3 79 -9 106 -13 64 -9 64 16 1
47 -59 28 -132 36 -158 16z"/>
<path d="M870 237 c0 -4 14 -14 30 -22 31 -16 80 -11 64 5 -11 11 -94 25 -94
17z"/>
</g>
</svg>
